<svg xmlns="http://www.w3.org/2000/svg" enable-background="new 0 0 47.5 47.5" viewBox="0 0 47.5 47.5"><defs><clipPath id="a" clipPathUnits="userSpaceOnUse"><path d="M 0,38 38,38 38,0 0,0 0,38 Z"/></clipPath></defs><g clip-path="url(#a)" transform="matrix(1.25 0 0 -1.25 0 47.5)"><path fill="#ccd6dd" d="m 0,0 c 0,-2.209 -1.791,-4 -4,-4 l -28,0 c -2.209,0 -4,1.791 -4,4 l 0,18 c 0,2.209 1.791,4 4,4 l 28,0 c 2.209,0 4,-1.791 4,-4 L 0,0 Z" transform="translate(37 10)"/><path fill="#99aab5" d="m 0,0 -11.313,-11.313 c -0.027,-0.028 -0.037,-0.063 -0.06,-0.091 0.34,-0.571 0.814,-1.043 1.384,-1.384 0.029,0.023 0.063,0.033 0.09,0.059 L 1.415,-1.414 c 0.39,0.391 0.39,1.022 0,1.414 C 1.023,0.391 0.391,0.391 0,0" transform="translate(12.95 19.364)"/><path fill="#99aab5" d="m 0,0 c -0.021,0.028 -0.033,0.063 -0.06,0.09 l -11.312,11.314 c -0.392,0.391 -1.024,0.391 -1.415,0 -0.391,-0.391 -0.391,-1.023 0,-1.414 L -1.474,-1.324 c 0.027,-0.027 0.062,-0.037 0.09,-0.06 C -0.812,-1.044 -0.34,-0.57 0,0" transform="translate(36.423 7.96)"/><path fill="#99aab5" d="m 0,0 -28,0 c -2.209,0 -4,-1.791 -4,-4 l 0,-1.03 14.528,-14.495 c 1.894,-1.894 4.988,-1.894 6.884,0 L 4,-5.009 4,-4 C 4,-1.791 2.209,0 0,0" transform="translate(33 32)"/><path fill="#e1e8ed" d="m 0,0 -28,0 c -1.588,0 -2.949,-0.934 -3.595,-2.275 l 14.766,-14.767 c 1.562,-1.562 4.096,-1.562 5.657,0 L 3.595,-2.275 C 2.949,-0.934 1.589,0 0,0" transform="translate(33 32)"/></g></svg>