<svg xmlns="http://www.w3.org/2000/svg" width="512" height="512" fill-rule="evenodd" clip-rule="evenodd" image-rendering="optimizeQuality" shape-rendering="geometricPrecision" text-rendering="geometricPrecision" viewBox="0 0 512 512"><path fill="#5a3e85" fill-rule="nonzero" d="M44.57 0l-33.39 89.04 0 356.14 122.38 0 0 66.82 66.81 0 66.75 -66.82 100.14 0 133.56 -133.51 0 -311.67 -456.25 0zm44.49 44.49l367.26 0 0 244.88 -77.92 77.92 -122.4 0 -66.73 66.73 0 -66.73 -100.21 0 0 -322.8zm122.42 222.65l44.52 0 0 -133.55 -44.52 0 0 133.55zm122.41 0l44.51 0 0 -133.55 -44.51 0 0 133.55z"/><path fill="#3caf41" fill-rule="nonzero" d="M-2698.74 1733.62c-11.72,0.21 -21.62,10.19 -21.41,21.58 0.21,11.81 9.93,21.04 21.98,20.9 12.08,-0.15 21.24,-9.48 21.13,-21.54 -0.1,-11.83 -9.77,-21.16 -21.7,-20.94zm150.41 136.23c-9.29,-0.07 -17.18,7.54 -17.56,16.93 -0.4,10.03 7.4,18.28 17.33,18.3 9.61,0.03 17.2,-7.23 17.55,-16.8 0.37,-10.05 -7.43,-18.36 -17.32,-18.43zm-92.53 18.41c0.38,-10.01 -7.67,-18.41 -17.7,-18.45 -9.92,-0.04 -18.24,8.47 -17.89,18.33 0.32,9.43 8.26,17.05 17.77,17.06 9.49,0.01 17.45,-7.4 17.82,-16.94zm109.84 164.41c-14.63,-1.53 -30.01,6.91 -45.31,8.48 -46.63,4.77 -88.4,-8.23 -122.85,-40.08 -65.51,-60.59 -56.15,-153.5 19.64,-203.15 67.36,-44.13 166.15,-29.42 213.64,31.81 41.45,53.43 36.58,124.36 -14.02,169.25 -23.61,20.95 -13.71,27.63 -7.57,51.97 -13.6,-6.06 -28.68,-16.73 -43.53,-18.28zm-302.83 -319.04c-11.95,-0.36 -21.78,8.78 -22.13,20.56 -0.35,11.94 8.78,21.5 20.82,21.81 11.93,0.3 21.94,-8.84 22.38,-20.47 0.44,-11.59 -9.66,-21.57 -21.07,-21.9zm72.22 213.69c-18.57,-2.3 -35.48,-4.83 -52.48,-6.27 -5.87,-0.49 -12.84,0.21 -17.82,3.02 -16.51,9.32 -32.34,19.84 -51.1,31.56 3.44,-15.57 5.67,-29.2 9.62,-42.32 2.9,-9.63 1.55,-15 -7.33,-21.28 -115.1,-81.26 -78.79,-230.75 49.97,-272.81 100.32,-32.78 226.22,24.88 236.57,135.64 -96.71,5.05 -176.11,70.06 -167.43,172.46z"/><path fill="#1e1b1e" fill-rule="nonzero" d="M-2014.21 1705.12c79.75,0 144.4,65.1 144.4,145.39 0,80.3 -64.65,145.39 -144.4,145.39 -79.75,0 -144.4,-65.09 -144.4,-145.39 0,-80.29 64.65,-145.39 144.4,-145.39zm230.6 8.52c39.88,0 72.2,61.27 72.2,136.87 0.13,18.22 -7.61,136.88 -72.19,136.88 -39.88,0 -72.21,-61.3 -72.21,-136.88 0,-75.58 32.33,-136.87 72.2,-136.87zm111.61 14.25c14.02,0 25.39,54.9 25.39,122.62 0,67.7 -11.37,122.62 -25.39,122.62 -14.03,0 -25.39,-54.9 -25.39,-122.62 0,-67.72 11.36,-122.62 25.39,-122.62z"/><path fill="#e01e5a" fill-rule="nonzero" d="M-1229.55 1594.85c-28.14,0 -51.13,22.99 -51.13,51.13 0,28.14 22.99,51.13 51.13,51.13 17.05,0 34.09,0 51.14,0l0 -51.13c0,-28.14 -22.65,-51.13 -51.14,-51.13zm-187.02 323.95c0,28.14 22.99,51.13 51.13,51.13 28.14,0 51.13,-22.99 51.13,-51.13l0 -51.13 -51.13 0c-28.48,0 -51.13,22.99 -51.13,51.13zm136.23 0l0 136.58c0,28.14 23,51.13 51.14,51.13 28.14,0 51.13,-22.99 51.13,-51.13l0 -136.58c0,-28.14 -22.99,-51.13 -51.13,-51.13 0,0 0,0 0,0 -28.49,0 -51.14,22.99 -51.14,51.13zm187.03 187.71c28.14,0 51.13,-22.99 51.13,-51.13 0,-28.14 -22.99,-51.13 -51.13,-51.13l-51.13 0 0 51.13c0,28.14 22.99,51.13 51.13,51.13zm136.24 -136.58c28.14,0 51.13,-22.99 51.13,-51.13 0,-28.14 -22.99,-51.13 -51.13,-51.13l-136.24 0c-28.14,0 -51.13,22.99 -51.13,51.13 0,28.14 22.99,51.13 51.13,51.13 45.41,0 90.83,0 136.24,0zm51.13 -187.71c0,-28.14 -22.99,-51.13 -51.13,-51.13 -28.14,0 -51.14,22.99 -51.14,51.13l0 51.13 51.14 0c28.14,0.35 51.13,-22.65 51.13,-51.13zm-136.24 0l0 -136.58c0,-28.14 -22.99,-51.13 -51.13,-51.13 -28.14,0 -51.13,22.99 -51.13,51.13l0 136.58c0,28.14 22.99,51.13 51.13,51.13 28.48,0.35 51.13,-22.65 51.13,-51.13zm-187.37 -51.13l-135.89 0c-28.14,0 -51.13,22.99 -51.13,51.13 0,28.14 22.99,51.13 51.13,51.13l136.24 0c28.14,0 51.13,-22.99 51.13,-51.13 -0.34,-28.14 -22.99,-51.13 -51.48,-51.13z"/></svg>